<svg width="120" height="26" viewBox="0 0 120 26" fill="none" xmlns="http://www.w3.org/2000/svg">
<g clip-path="url(#clip0_18_577)">
<g clip-path="url(#clip1_18_577)">
<path d="M37.3251 17.4155L39.2554 15.1599C40.5783 16.548 41.923 17.1769 43.4195 17.1769C44.6991 17.1769 45.4798 16.7215 45.4798 15.9624C45.4798 15.2467 44.8075 14.878 43.0725 14.4659C39.6458 13.6635 38.171 12.3622 38.171 10.2151C38.171 7.72094 40.1229 6.18109 43.2026 6.18109C45.2413 6.18109 47.1281 6.85342 48.5812 8.21977L46.7811 10.4103C45.5666 9.30417 44.3521 8.84872 43.0725 8.84872C41.9447 8.84872 41.294 9.23911 41.294 9.95481C41.294 10.6271 41.8796 10.9958 43.593 11.3645C47.2149 12.1887 48.6463 13.5767 48.6463 15.6805C48.6463 18.2613 46.5209 19.8446 43.2243 19.8446C40.8386 19.8446 38.7782 19.0421 37.3251 17.4155Z" fill="#141323"/>
<path d="M50.1861 13.0345C50.1861 9.08728 52.9839 6.15939 56.801 6.15939C60.4229 6.15939 63.199 8.78365 63.199 12.6224C63.199 13.0562 63.1773 13.3598 63.0905 13.902H53.4177C53.7647 15.7889 55.066 16.9167 57.2131 16.9167C58.7746 16.9167 60.0108 16.3311 60.9434 15.1599L62.8737 17.1119C61.4856 18.8903 59.4036 19.8229 57.0613 19.8229C53.049 19.8446 50.1861 17.0034 50.1861 13.0345ZM56.7142 8.71858C55.0009 8.71858 53.808 9.80299 53.4394 11.5163H59.9675C59.5988 9.69455 58.4493 8.71858 56.7142 8.71858Z" fill="#141323"/>
<path d="M68.556 6.5064V8.28482C69.3801 6.8751 70.5296 6.15939 72.0911 6.15939C72.5249 6.15939 72.8719 6.22446 73.0888 6.24615L72.655 9.58611C72.2646 9.43429 71.8742 9.39091 71.4405 9.39091C69.7488 9.39091 68.7078 10.5838 68.7078 12.3839V19.5192H65.6064V6.5064H68.556Z" fill="#141323"/>
<path d="M73.5008 13.0345C73.5008 9.08728 76.2986 6.15939 80.1157 6.15939C83.7376 6.15939 86.5136 8.78365 86.5136 12.6224C86.5136 13.0562 86.492 13.3598 86.4052 13.902H76.7323C77.0793 15.7889 78.3806 16.9167 80.5277 16.9167C82.0893 16.9167 83.3255 16.3311 84.2581 15.1599L86.1883 17.1119C84.8003 18.8903 82.7182 19.8229 80.3759 19.8229C76.3636 19.8446 73.5008 17.0034 73.5008 13.0345ZM80.0289 8.71858C78.3156 8.71858 77.1227 9.80299 76.754 11.5163H83.2821C82.9134 9.69455 81.764 8.71858 80.0289 8.71858Z" fill="#141323"/>
<path d="M91.8923 6.50641V7.9812C92.8899 6.76667 94.1262 6.18109 95.6877 6.18109C98.5939 6.18109 100.654 8.48002 100.654 11.4947V19.5192H97.5529V12.1887C97.5529 10.2368 96.5119 9.00054 94.8202 9.00054C93.1285 9.00054 92.0441 10.3018 92.0441 12.2537V19.5192H88.921V6.50641H91.8923Z" fill="#141323"/>
<path d="M105.165 4.55447C106.231 4.55447 107.096 3.69028 107.096 2.62424C107.096 1.5582 106.231 0.694 105.165 0.694C104.099 0.694 103.235 1.5582 103.235 2.62424C103.235 3.69028 104.099 4.55447 105.165 4.55447Z" fill="#141323"/>
<path d="M106.705 6.50641H103.604V19.5192H106.705V6.50641Z" fill="#141323"/>
<path d="M108.701 17.4155L110.631 15.1599C111.954 16.548 113.298 17.1769 114.795 17.1769C116.074 17.1769 116.855 16.7215 116.855 15.9624C116.855 15.2467 116.183 14.878 114.448 14.4659C111.021 13.6852 109.568 12.3839 109.568 10.2151C109.568 7.72094 111.52 6.18109 114.6 6.18109C116.638 6.18109 118.525 6.85342 119.978 8.21977L118.135 10.4103C116.92 9.30417 115.706 8.84872 114.426 8.84872C113.298 8.84872 112.648 9.23911 112.648 9.95481C112.648 10.6271 113.233 10.9958 114.947 11.3645C118.569 12.1887 120 13.5767 120 15.6805C120 18.2613 117.875 19.8446 114.578 19.8446C112.214 19.8446 110.132 19.0421 108.701 17.4155Z" fill="#141323"/>
<path d="M13.0996 15.0515C16.548 15.919 15.225 17.4589 15.0515 17.6324C13.0779 19.4759 6.78836 21.3194 1.93024 22.5989C0.498825 20.6036 0 17.5456 0 13.0128C0 2.60257 2.60257 0 13.0128 0C15.507 0 17.5673 0.151816 19.2373 0.520513C20.3 0.759082 21.2326 1.0844 22.0134 1.53985C22.2086 1.64829 22.3821 1.75673 22.5556 1.86517C20.5603 2.27725 18.565 2.79776 16.895 3.29658C14.1189 4.14242 11.0392 5.31357 8.30652 6.87511C6.65823 7.8077 4.27255 9.84637 5.29189 11.8634C6.11603 13.3382 8.87041 13.9454 9.41262 14.0972L13.0996 15.0515Z" fill="#7A59F5"/>
<path d="M10.2151 9.82468C10.2585 10.8657 11.8634 11.3645 13.208 11.7332C14.9214 12.2321 16.3745 12.6441 18.0662 13.208C19.3241 13.6418 20.929 14.4442 20.994 16.1793C21.0808 19.0638 15.7238 21.8182 14.3792 22.5339C12.9912 23.2713 8.78367 25.3099 7.87277 25.722C9.32587 25.9606 11.0392 26.0473 13.0345 26.0473C23.4448 26.0473 26.0474 23.4448 26.0474 13.0345C26.0474 8.74028 25.6136 5.7907 24.3557 3.77371C22.4688 4.07734 10.0633 6.74498 10.2151 9.82468Z" fill="#7A59F5"/>
</g>
</g>
<defs>
<clipPath id="clip0_18_577">
<rect width="120" height="26" fill="white"/>
</clipPath>
<clipPath id="clip1_18_577">
<rect width="120" height="26.0257" fill="white"/>
</clipPath>
</defs>
</svg>
